<svg xmlns="http://www.w3.org/2000/svg" width="460" height="80" viewBox="0 0 460 80">
  <defs>
    <linearGradient id="robloxfpsboosterbtnBg" x1="0%" y1="0%" x2="100%" y2="100%">
      <stop offset="0%" stop-color="#1c1c1c"/>
      <stop offset="100%" stop-color="#0d1117"/>
    </linearGradient>
    <linearGradient id="robloxfpsboosterbtnGl" x1="0%" y1="0%" x2="100%" y2="0%">
      <stop offset="0%" stop-color="#e2231a"/>
      <stop offset="100%" stop-color="#ff6b6b"/>
    </linearGradient>
    <filter id="robloxfpsboosterbtnSh">
      <feDropShadow dx="0" dy="2" stdDeviation="6" flood-color="#e2231a" flood-opacity="0.35"/>
    </filter>
  </defs>

  <rect x="2" y="2" width="456" height="76" rx="14" fill="url(#robloxfpsboosterbtnBg)" filter="url(#robloxfpsboosterbtnSh)"/>
  <rect x="2" y="2" width="456" height="76" rx="14" fill="none" stroke="url(#robloxfpsboosterbtnGl)" stroke-width="2"/>
  <rect x="3" y="3" width="454" height="20" rx="13" fill="#ffffff" opacity="0.04"/>


  <g transform="translate(22,18)" filter="url(#robloxfpsboosterbtnSh)">
    <rect x="6" y="6" width="44" height="44" rx="6" fill="#e2231a" transform="rotate(-12 28 28)"/>
    <rect x="14" y="14" width="28" height="28" rx="4" fill="#ff6b6b" transform="rotate(-12 28 28)"/>
    <rect x="22" y="22" width="12" height="12" rx="2" fill="#ffffff" opacity="0.9" transform="rotate(-12 28 28)"/>
  </g>

  <text x="84" y="29" font-family="'Segoe UI', 'Helvetica Neue', Arial, sans-serif" font-size="11" font-weight="600" fill="#e2231a" letter-spacing="1.5">ROBLOX · FREE</text>
  <text x="84" y="54" font-family="'Segoe UI', 'Helvetica Neue', Arial, sans-serif" font-size="22" font-weight="700" fill="#ffffff" letter-spacing="0.2">Download FPS Booster</text>

  <polyline points="425,32 438,40 425,48" fill="none" stroke="url(#robloxfpsboosterbtnGl)" stroke-width="3" stroke-linecap="round" stroke-linejoin="round"/>
</svg>
